<svg width="24" height="20" viewBox="0 0 24 20" fill="none" xmlns="http://www.w3.org/2000/svg">
<path d="M21.3333 10V4.16667H23.6666V11.1667H21.3333M21.3333 15.8333H23.6666V13.5H21.3333M9.66659 11.1667C12.7816 11.1667 18.9999 12.73 18.9999 15.8333V19.3333H0.333252V15.8333C0.333252 12.73 6.55159 11.1667 9.66659 11.1667ZM9.66659 0.666668C10.9043 0.666668 12.0912 1.15833 12.9664 2.0335C13.8416 2.90867 14.3333 4.09566 14.3333 5.33333C14.3333 6.57101 13.8416 7.758 12.9664 8.63317C12.0912 9.50834 10.9043 10 9.66659 10C8.42891 10 7.24192 9.50834 6.36675 8.63317C5.49158 7.758 4.99992 6.57101 4.99992 5.33333C4.99992 4.09566 5.49158 2.90867 6.36675 2.0335C7.24192 1.15833 8.42891 0.666668 9.66659 0.666668M9.66659 13.3833C6.20159 13.3833 2.54992 15.0867 2.54992 15.8333V17.1167H16.7833V15.8333C16.7833 15.0867 13.1316 13.3833 9.66659 13.3833M9.66659 2.88333C9.01681 2.88333 8.39364 3.14146 7.93417 3.60092C7.47471 4.06039 7.21659 4.68355 7.21659 5.33333C7.21659 5.98311 7.47471 6.60628 7.93417 7.06575C8.39364 7.52521 9.01681 7.78333 9.66659 7.78333C10.3164 7.78333 10.9395 7.52521 11.399 7.06575C11.8585 6.60628 12.1166 5.98311 12.1166 5.33333C12.1166 4.68355 11.8585 4.06039 11.399 3.60092C10.9395 3.14146 10.3164 2.88333 9.66659 2.88333V2.88333Z" fill="black"/>
</svg>
